<svg width="1024" height="1024" viewBox="0 0 1024 1024" fill="none" xmlns="http://www.w3.org/2000/svg">
<path d="M238.029 813.825L232.576 751.61C231.93 744.795 228.387 720.075 229.78 715.73L230.623 715.175C231.733 715.965 231.749 715.81 231.966 717.74C233.873 734.685 235.581 751.78 237.23 768.75C241.168 808.515 244.363 848.345 246.815 888.23L256.905 1024H253.641H241.317H238.632C239.134 1020.87 239.41 1017.14 239.663 1013.97C242.064 983.91 245.769 953.43 245.425 923.26C215.79 927.61 191.939 922.085 163.978 912.545C161.243 911.61 153.978 909.32 152.243 907.39L152.95 906.495C153.386 906.34 153.821 906.18 154.256 906.02C185.79 916.45 211.961 925.845 246.048 919.765C244.4 900.575 242.994 881.36 241.83 862.135C241.317 853.835 240.214 829.17 238.317 822.5C235.249 811.71 222.664 790.45 215.942 780.95C214.229 778.525 209.251 771.985 208.548 770.09L209.058 769.315C214.481 768.88 235.234 807.43 238.029 813.825Z" fill="white"/>
<path d="M241.317 1024C242.839 1009.59 244.248 995.165 245.543 980.735C246.347 970.71 246.741 959.765 247.799 949.89L248.068 949.73C249.165 955.635 249.722 971.2 250.143 978.08C251.048 992.865 253.246 1009.42 253.641 1024H241.317Z" fill="black"/>
<path d="M769.625 1024C771.97 991.25 791.335 720.225 795.66 715.355C797.125 715.35 796.435 715.18 797.675 716.155C797.795 719.785 796.86 726.235 796.445 730.015L794.26 751.22L788.24 815.125C791.95 806.38 810.32 772.525 817.57 769.2L818.3 769.655C818.425 771.595 813.27 777.695 811.86 779.725C797.29 800.73 787.86 815.37 786.005 841.405C784.165 867.165 783.33 894.28 780.425 919.8C806.175 924.455 827.995 919.885 852.575 912.775C857.9 911.235 864.755 908.1 869.89 907.13L870.745 909.56C868.235 910.965 865.26 911.81 862.525 912.71C836.135 921.41 808.885 928.24 780.98 923.29C780.575 935.26 781.4 944.97 782.225 956.87C783.025 969.58 783.98 982.275 785.09 994.955C785.94 1004.4 787.18 1014.65 787.79 1024H785.14H772.49H769.625Z" fill="white"/>
<path d="M778.285 949.145C778.715 951.555 778.99 953.895 779.13 956.335C780.41 978.97 783.17 1001.44 785.14 1024H772.49C774.685 999.13 776.02 973.955 778.285 949.145Z" fill="black"/>
<path d="M496.207 125.907C564.958 117.131 644.189 151.229 664.569 221.536C674.131 254.508 675.025 291.418 664.528 323.63L663.51 326.757L666.754 326.224C670.117 325.671 672.586 325.381 674.933 325.658C677.211 325.927 679.505 326.752 682.406 328.665C687.449 332.105 691.01 339.26 691.839 345.665L691.91 346.282C694.064 367.303 685.425 392.062 672.72 408.874C668.826 414.026 664.246 419.329 659.035 422.682C653.902 425.984 648.29 427.322 642.048 424.845L639.812 423.957L639.348 426.318C635.157 447.62 624.853 475.584 612.941 493.801L612.612 494.304L612.615 494.904L612.735 521.359V521.364C612.782 528.1 612.63 538.349 613.812 548.065C614.405 552.931 615.339 557.741 616.835 561.972C618.325 566.187 620.422 569.968 623.427 572.619C627.702 576.392 634.11 579.886 641.267 583.028L640.862 584.609C639.135 591.353 635.894 599.389 632.218 605.23C592.642 668.106 502.261 684.332 439.552 647.066C415.711 632.896 394.48 612.024 387.541 584.859L387.148 583.324C393.007 580.936 398.775 578.192 402.876 575.256L402.875 575.255C411.986 568.735 415.208 557.368 416.365 545.901C416.949 540.117 417.02 534.167 416.995 528.58C416.97 522.949 416.848 517.756 417.027 513.306C417.26 507.533 416.987 500.583 416.94 494.942L416.936 494.377L416.637 493.899L415.306 491.744C401.807 469.624 395.938 451.823 389.675 425.92L389.126 423.651L386.968 424.542C382.651 426.325 378.2 427.337 374.513 425.243C361.827 418.042 350.729 403.179 344.144 386.401C337.556 369.615 335.665 351.378 340.827 337.568C344.567 327.562 355.299 324.596 365.966 326.158L369.174 326.627L368.154 323.55C356.059 287.018 357.524 244.441 372.354 208.973C387.169 173.543 415.253 145.326 456.395 137.118L456.454 137.106L456.513 137.091C458.548 136.555 460.835 136.166 463.239 135.742C465.596 135.327 468.063 134.877 470.271 134.218C474.668 132.906 479.12 131.044 483.375 129.453C487.702 127.836 491.933 126.453 496.207 125.907Z" stroke="white" stroke-width="4"/>
<path d="M520.024 447.039C520.595 446.999 521.175 446.99 521.755 447.011C524.854 447.139 529.153 448.691 531.176 450.097C542.462 457.946 541.683 469.829 527.894 476.556C523.168 478.861 517.228 479.222 511.233 478.898C500.775 477.462 495.064 473.229 491.965 467.403C488.31 460.532 495.176 447.473 510.261 447.197C514.119 447.126 515.626 447.701 520.024 447.039Z" fill="white"/>
<path d="M520.08 438.018C524.48 438.756 526.295 440.445 529.215 443.897C531.175 446.215 535.02 454.282 534.665 457.193L533.59 456.105C530.565 451.942 527.97 449.147 523.235 446.818C520.99 445.714 517.415 445.09 515.975 443.491C515.07 440.241 517.42 439.028 520.08 438.018Z" fill="black"/>
<path d="M508.505 438.589C511.13 438.597 514.7 439.039 515.44 442.144C513.58 446.87 507.425 445.13 503.965 447.203C501.42 448.726 499.223 451.675 497.397 454.013L494.301 457.98C497.131 449.51 499.702 442.42 508.505 438.589Z" fill="black"/>
<path d="M437.237 291.149C449.332 289.697 466.257 292.08 477.975 295.077C480.904 295.826 491.555 302.41 489.836 305.934C488.959 306.327 487.623 306.822 486.677 306.577C476.494 303.928 467.377 302.207 456.926 301.088C445.318 300.373 434.433 300.244 423.301 304.22C420.655 305.166 409.853 310.961 408.031 310.082C407.859 308.727 408.24 307.962 409.19 306.828C416.691 297.868 425.854 292.768 437.237 291.149Z" fill="white"/>
<path d="M574.615 291.203C592.655 288.597 610.34 293.643 621.78 308.327C622.615 309.395 622.54 309.365 622.295 310.532C619.735 311.072 615.255 308.575 612.87 307.36C606.51 304.113 601.1 302.464 594.02 301.601C578.335 298.755 560.055 302.019 545.085 306.086C543.42 306.539 542.615 306.231 541.29 305.253C539.79 294.147 567.585 291.95 574.615 291.203Z" fill="white"/>
<path d="M654.975 395.595C658.135 394.084 660.95 391.936 663.305 390.863L663.88 391.172C662.995 394.619 654.57 403.386 651.36 398.637C650.16 396.681 650.905 394.306 651.715 392.374C654.105 386.668 653.585 381.491 653.455 375.549C653.2 363.639 658.915 347.794 670.5 342.69C674.335 341 681.255 338.563 683.49 343.491C683.525 345.035 683.69 344.544 683.165 345.875L684.24 346.84C686.285 354.962 682.09 383.53 675.15 388.305L674.545 388.162C674.095 384.744 677.835 378.08 678.92 373.659C680.045 369.11 680.87 364.492 681.38 359.833C681.685 356.825 681.61 347.631 682.39 346.148C681.74 345.104 681.015 343.697 679.765 343.518C676.085 342.969 670.655 345.848 667.945 347.86C662.285 352.054 656.635 364.8 656.625 371.951C656.605 381.559 657.13 385.722 654.975 395.595Z" fill="white"/>
<path d="M480.033 337.462C481.094 337.348 481.422 337.41 482.496 337.465C483.784 338.588 483.425 337.906 483.665 339.552C482.08 342.384 476.628 344.58 473.532 345.715C455.827 352.203 441.898 351.736 424.904 344.485C422.81 343.569 421.459 343.198 420.45 341.272C420.661 340.804 421.347 339.472 421.921 339.669C443.534 347.072 457.776 346.481 480.033 337.462Z" fill="white"/>
<path d="M546.605 337.303C550.675 337.533 554.96 339.757 559.02 341.039C570.645 344.711 583.15 345.986 595.16 343.463C599.295 342.593 603.415 340.14 607.715 339.756C608.88 339.652 608.93 339.97 609.695 340.636C609.385 342.329 609.68 341.497 608.2 343.024C588.14 352.862 566.825 352.814 546.925 340.792C545.83 340.131 546.425 338.315 546.605 337.303Z" fill="white"/>
<path d="M349.953 340.581C373.284 339.447 377.322 367.86 376.616 384.755C376.459 388.516 381.193 397.138 376.552 399.264C374.008 399.238 371.579 397.98 369.154 396.996L366.375 392.78C365.982 391.677 365.999 391.759 366.257 390.613L367.246 390.297C369.554 391.331 372.328 393.87 374.694 395.529C374.457 392.151 373.272 387.308 373.395 384.146C373.937 370.114 372.555 354.127 359.396 345.862C353.935 342.432 352.175 343.947 346.805 344.47L346.316 343.823C346.882 341.566 347.979 341.346 349.953 340.581Z" fill="white"/>
<path d="M346.064 346.654C348.406 347.888 347.949 352.088 348.252 355.296C349.14 365.037 350.134 375.22 354.885 383.947C356.904 387.654 362.263 390.436 361.563 394.405C348.649 390.252 343.054 357.864 346.064 346.654Z" fill="white"/>
<path d="M495.88 485.721C498.877 487.164 502.565 494.11 508.29 495.885C517.76 498.81 525.505 495.58 531.535 487.975C532.285 487.03 533.145 486.344 534.355 486.32C535.07 487.794 534.875 486.975 534.455 488.943C530.9 493.6 527.15 497.125 521.35 498.855C515.58 500.58 509.355 499.915 504.075 497.015C500.54 495.105 496.227 491.705 495.004 487.597C494.751 486.75 495.117 486.738 495.88 485.721Z" fill="white"/>
<path d="M537.21 390.22C543.09 391.59 545.075 400.541 543.335 405.618C541.695 410.398 540.535 411.554 536.19 413.811C535.085 413.585 535.38 413.635 534.35 413.08C534.305 410.676 540.17 407.958 541.07 404.464C542.675 398.264 536.575 395.387 537.21 390.22Z" fill="white"/>
<path d="M490.663 390.323L491.774 390.751C492.425 392.814 488.142 398.302 487.832 401.694C487.202 408.587 496.058 408.709 494.929 413.707C482.454 411.613 483.298 398.31 490.663 390.323Z" fill="white"/>
<path d="M498.389 404.086C502.81 404.037 511.005 406.919 509.115 412.371L508.075 412.765L506.925 412.166C501.125 406.11 497.273 409.938 494.562 406.971L494.693 406.017C496.283 404.75 496.422 404.741 498.389 404.086Z" fill="white"/>
<path d="M528.26 404.026C530.93 403.925 533.925 403.456 534.68 406.699C532.15 409.38 528.495 407.085 524.09 410.132C522.455 411.915 522.5 412.295 520.48 412.774L519.745 412.255C519.185 407.988 525.01 405.114 528.26 404.026Z" fill="white"/>
<path d="M498.276 334.749C505.095 337.196 501.61 352.674 499.963 357.948C499.057 357.64 498.778 357.465 497.92 357.033C497.474 355.07 499.454 350.457 499.651 347.652C499.931 343.684 497.81 337.952 498.276 334.749Z" fill="white"/>
<path d="M508.455 429.958C509.965 429.99 520.34 430.493 520.665 430.653L520.855 431.997C516.57 433.831 511.015 434.799 508.455 429.958Z" fill="white"/>
<path d="M756.98 382C761.78 383.003 769.87 393.012 772.86 396.807C792.47 421.688 801.21 453.428 797.105 484.841C793.66 512.925 781.505 537.217 759.01 554.77C757.54 554.51 757.355 554.12 756.695 553.06C757.12 550.98 758.955 549.81 760.56 548.395C808.38 506.216 803.415 426.593 756.735 385.53C755.84 384.741 756.685 382.983 756.98 382Z" fill="white"/>
<path d="M279.475 382C281.181 382.927 280.558 382.298 281.529 383.835C281.051 385.736 273.98 392.436 271.986 394.678C260.998 407.258 252.919 422.105 248.324 438.163C237.53 475.166 246.429 521.098 276.394 546.96C277.951 548.3 280.565 550.35 281.517 552.09C281.38 553.895 281.451 553.305 280.021 554.97C277.978 553.72 275.808 551.911 274.006 550.331C231.269 512.879 229.948 442.208 263.678 398.529C267.763 393.239 273.971 385.973 279.475 382Z" fill="white"/>
<path d="M731.825 406.121C735.345 406.395 737.435 408.981 739.715 411.524C771.135 446.517 770.205 497.71 734.44 529.275C733.135 529.612 732.76 529.472 731.775 528.877C731.81 526.02 736.335 522.347 738.455 520.046C742.975 515.147 746.825 509.673 749.915 503.767C754.425 495.081 757.13 485.569 757.865 475.808C760.01 449.245 750.74 427.159 732.09 409.601C731.165 408.728 731.65 407.281 731.825 406.121Z" fill="white"/>
<path d="M304.404 405.481L306.017 406.874C306.695 409.64 303.518 411.43 301.531 413.584C276.738 440.453 272.352 481.807 293.473 512.199C296.655 516.778 303.941 522.956 306.221 527.168C306.137 529.033 306.403 528.126 304.937 529.813C299.923 527.041 294.598 520.039 291.163 515.439C271.031 488.48 271.323 449.673 290.022 422.06C293.543 416.861 299.337 409.147 304.404 405.481Z" fill="white"/>
<path d="M328.281 428.386C329.651 428.324 329.58 428.397 330.826 429.032C331.49 431.593 326.881 435.205 325.183 437.417C310.259 456.86 312.59 486.902 331.08 503.232C331.962 504.01 331.35 505.834 331.154 506.817C328.703 506.458 328.449 506.045 326.714 504.381C311.41 489.709 307.236 465.876 315.353 446.495C318.411 439.194 322.812 433.998 328.281 428.386Z" fill="white"/>
<path d="M708.005 428.123C710.255 428.785 710.71 429.316 712.385 431.095C722.015 441.114 727.13 454.63 726.55 468.512C726.02 484.459 720.51 496.202 709.075 507.005C707.5 506.536 708.2 506.931 707 505.633C707.085 501.592 714.44 496.208 716.425 492.395C724.915 476.097 725.335 454.731 714.205 439.584C711.605 436.044 706.28 432.087 708.005 428.123Z" fill="white"/>
<path d="M449.049 229.147C452.31 228.557 457.887 228.714 463.658 229.246C469.383 229.774 475.099 230.65 478.544 231.41C510.22 238.396 536.987 243.109 569.724 239.166C576.544 238.345 583.997 236.988 591.327 235.708C598.526 234.451 605.611 233.268 611.987 232.698C615.747 234.634 619.653 238.939 621.386 242.701V242.702C623.851 248.065 625.717 254.011 627.42 260.112C629.109 266.164 630.658 272.454 632.446 278.272C635.785 289.131 640.26 300.282 642.816 310.92L642.818 310.928C644.301 316.965 645.222 323.126 645.577 329.333V329.332C645.858 335.026 645.754 340.73 645.256 346.407V346.41C645.013 349.231 643.958 355.374 643.066 361.348C642.626 364.299 642.229 367.189 642.009 369.532C641.898 370.702 641.829 371.762 641.824 372.639C641.819 373.45 641.863 374.311 642.094 374.949L642.312 375.55L642.896 375.809L643.547 376.097L644.168 376.373L644.785 376.087C647.212 374.963 648.731 372.62 649.735 370.017C650.749 367.388 651.338 364.236 651.743 361.112C652.147 357.99 652.382 354.759 652.64 352.033C652.891 349.395 653.158 347.312 653.573 345.988L653.658 345.734C655.637 340.178 660.118 334.066 665.446 330.716C668.093 329.051 670.873 328.115 673.608 328.183C676.313 328.249 679.114 329.298 681.851 331.854L681.875 331.876L681.899 331.896C688.392 337.457 690.044 347.478 689.324 356.814C688.405 368.71 684.222 384.053 677.032 397.217C669.824 410.415 659.756 421.138 647.218 424.304C646.512 424.482 646.091 424.43 645.849 424.345C645.626 424.266 645.422 424.111 645.229 423.801C644.786 423.087 644.546 421.786 644.562 419.99C644.595 416.448 645.56 412.323 645.872 410.335L645.971 409.699L645.58 409.188C645.352 408.892 645.223 408.701 645.111 408.541C645.036 408.434 644.83 408.118 644.502 407.884C644.155 407.636 643.783 407.553 643.637 407.517C643.436 407.467 643.227 407.422 642.871 407.321L642.133 407.114L641.532 407.591C640.778 408.189 640.277 409.013 639.926 409.822C639.57 410.641 639.325 411.55 639.141 412.427C638.957 413.308 638.825 414.209 638.714 415.018C638.599 415.85 638.509 416.553 638.404 417.131V417.134C629.321 467.666 609.931 503.522 569.262 535.247C563.351 539.71 554.874 545.668 548.577 548.834C530.627 557.838 509.804 559.251 490.8 552.756L490.794 552.754L489.654 552.356C477.833 548.107 464.579 539.352 452.378 528.99C439.799 518.308 428.459 506.021 421.092 495.458C406.302 474.256 396.152 445.194 391.5 419.749C391.186 418.035 391.028 416.202 390.702 414.054C390.397 412.041 389.958 409.896 389.088 408.149L388.782 407.537L388.119 407.366L386.875 407.046L386.223 406.878L385.666 407.252L384.913 407.756L384.468 408.055L384.312 408.568C384.176 409.019 384.128 409.541 384.113 410.028C384.097 410.538 384.115 411.116 384.154 411.724C384.232 412.941 384.402 414.367 384.6 415.79C384.91 418.004 385.309 420.351 385.567 421.907C383.413 422.987 382.329 423.343 379.771 424.135C373.666 422.29 367.731 417.849 362.364 411.676C356.886 405.375 352.083 397.365 348.373 388.771C344.663 380.178 342.066 371.048 340.969 362.527C339.869 353.987 340.29 346.171 342.504 340.138C346.064 330.434 356.666 325.971 366.333 329.688C367.76 332.81 369.394 335.415 370.923 337.854C372.555 340.46 374.052 342.854 375.198 345.604C375.809 347.068 376.275 349.181 376.695 351.737C377.114 354.292 377.458 357.087 377.883 359.98C378.301 362.831 378.791 365.718 379.486 368.271C380.174 370.797 381.103 373.156 382.49 374.84L382.7 375.096L382.999 375.239C383.374 375.419 383.605 375.55 383.787 375.652C383.885 375.708 384.256 375.937 384.685 376.005C385.212 376.088 385.645 375.921 385.812 375.859C386.054 375.771 386.21 375.703 386.592 375.572L387.143 375.383L387.423 374.872C387.727 374.315 387.857 373.654 387.92 373.055C387.985 372.427 387.99 371.719 387.959 370.98C387.896 369.502 387.68 367.763 387.414 366.033C387.147 364.297 386.822 362.529 386.536 360.99C386.318 359.821 386.126 358.803 385.992 358.012L385.878 357.3C384.724 349.153 384.771 340.881 386.016 332.748C386.83 327.627 388.485 322.121 390.351 316.507C392.203 310.939 394.281 305.215 395.853 299.848C398.154 291.991 399.384 282.774 401.188 274.278C403.022 265.645 405.473 257.559 410.193 251.294C419.824 238.511 433.214 231.305 448.983 229.158L449.016 229.153L449.049 229.147Z" stroke="white" stroke-width="3"/>
</svg>
