<svg width="1024" height="1024" viewBox="0 0 1024 1024" fill="none" xmlns="http://www.w3.org/2000/svg">
<path d="M244.486 953.465L247.153 955.145C245.583 976.82 244.144 1002.42 241.094 1024H238.622C241.429 1002.85 242.717 975.025 244.486 953.465Z" fill="white"/>
<path d="M237.676 813.195C235.84 790.52 233.861 767.855 231.738 745.2C230.863 736.04 229.936 726.755 228.536 717.67C228.455 717.145 228.854 716.26 229.05 715.805L229.969 714.885L230.859 715.145C232.605 718.835 233.234 732.665 233.79 737.495C237.894 774.56 241.342 811.7 244.132 848.89L248.892 921.335C251.379 955.59 254.914 989.515 256.464 1024H253.513H248.892C251.943 1002.42 245.583 976.82 247.152 955.145L244.486 953.465C244.366 942.585 245.632 935.415 244.977 923.22C215.107 928.515 178.89 919.915 151.303 907.675L153.06 906.09C155.087 905.665 170.353 911.345 173.764 912.445C198.513 920.42 219.71 924.2 245.822 919.735C244.484 901.24 243.127 882.75 241.741 864.16C240.946 853.48 240.845 832.36 238.181 822.6C234.601 809.485 222.978 792.59 215.79 781.19C213.681 778.125 209.174 772.5 208.104 769.995L208.755 769.05L209.73 768.965C217.558 775.995 233.244 803.065 237.676 813.195Z" fill="white"/>
<path d="M775.07 1022H771.885C772.299 1002.24 774.828 982.32 776.28 962.386V962.385C776.882 954.113 777.475 945.844 778.067 937.577L775.07 1022ZM898.051 896.34C898.077 899.109 898.142 901.913 898.23 904.731L897.995 901.36L897.794 898.475L895.165 899.683C836.218 926.766 794.201 927.088 780.927 924.051L779.068 923.625C779.116 922.953 779.164 922.281 779.212 921.609L780.199 921.75C788.564 922.936 796.988 923.846 805.563 923.669L807.281 923.618C820.072 923.131 840.886 918.78 860.505 912.393C870.333 909.194 879.922 905.464 888.108 901.417C891.698 899.642 895.049 897.791 898.046 895.88L898.051 896.34ZM788.901 815.751C788.241 817.449 787.633 819.162 787.084 820.889C786.97 821.22 786.862 821.552 786.76 821.884C786.942 819.696 787.125 817.509 787.31 815.322L788.901 815.751ZM479.045 127.155C517.353 113.397 566.328 122.958 601.277 142.287C634.345 160.575 656.277 189.53 665.867 225.549L665.877 225.582C669.396 237.939 671.281 256.1 671.077 274.24C670.873 292.404 668.577 310.25 663.915 322.049L662.652 325.246L666.055 324.765C674.133 323.622 679.413 324.877 683.094 327.979C686.856 331.15 689.36 336.581 691.067 344.741C692.215 350.228 691.582 358.521 689.359 367.88C687.15 377.181 683.425 387.311 678.6 396.384C673.763 405.479 667.892 413.378 661.456 418.357C655.058 423.308 648.284 425.258 641.344 422.96L639.221 422.258L638.759 424.444C634.184 446.037 624.473 471.595 612.081 489.849L611.73 490.364L611.735 490.988L611.945 517.051C611.96 524.558 611.686 535.577 612.898 546.021C614.098 556.357 616.809 566.784 623.286 572.661C627.274 576.28 633.676 579.739 640.813 582.868L640.487 584.662C639.369 590.808 634.778 600.951 631.316 606.518V606.519C614.361 633.79 583.895 653.378 553.236 661.624H553.235C513.799 672.237 472.773 666.953 437.722 646.16C414.884 632.611 393.545 611.018 386.985 584.972L386.587 583.389C386.735 583.328 386.884 583.27 387.032 583.209C393.611 580.503 400.177 577.243 404.514 573.463H404.515C412.426 566.565 415.224 554.797 416.262 543.087C416.788 537.165 416.872 531.108 416.873 525.468C416.874 519.788 416.79 514.594 416.969 510.242C417.216 504.198 417.252 494.692 416.714 489.103L416.661 488.558L416.337 488.114L415.705 487.241C402.528 468.828 395.403 445.993 389.566 424.066L389.023 422.027L387.017 422.678C384.353 423.541 382.112 424.035 379.968 424C377.87 423.966 375.755 423.424 373.357 422.041C358.329 412.779 346.575 393.186 341.696 376.243C339.908 370.034 338.379 362.285 338.109 354.652C337.838 346.984 338.845 339.652 341.922 334.104C346.83 325.254 355.86 322.981 365.847 324.767L368.985 325.327L368.125 322.258C356.175 279.615 357.288 235.011 373.574 199.425C389.818 163.93 421.215 137.248 470.289 130.334V130.333C470.922 130.244 471.698 130.006 472.421 129.757C473.181 129.495 474.028 129.167 474.857 128.836C476.581 128.147 478.132 127.483 479.045 127.155Z" stroke="white" stroke-width="4"/>
<path d="M439.43 293.71C450.237 292.843 464.917 294.973 475.474 297.269C479.088 298.055 490.417 303.67 488.693 308.067C487.786 308.543 486.866 308.864 485.844 308.584C475.322 305.706 465.949 304.47 455.125 303.534C444.329 303.032 433.869 302.859 423.354 305.942C420.436 306.798 409.97 312.405 408.018 311.291C407.974 310.179 408.14 309.511 409.06 308.591C418.439 299.209 426.742 294.862 439.43 293.71Z" fill="white"/>
<path d="M576.315 293.712L576.895 293.682C595.885 292.7 604.16 294.531 619.74 307.656C621.155 308.849 621.815 309.713 621.87 311.386C621.495 311.575 621.12 311.765 620.745 311.955C616.46 310.261 611.175 308.026 606.935 306.537C601.665 304.689 597.09 303.797 591.735 303.062C580.665 302.435 570.215 302.912 559.23 304.259C554.81 304.801 543.315 309.586 540.49 306.323C540.72 302.555 548.145 298.562 551.41 297.56C559.26 295.15 568.16 294.333 576.315 293.712Z" fill="white"/>
<path d="M676.55 339.615C679.385 339.771 680.69 339.752 682.065 342.431C684.915 347.971 683.725 356.983 683.02 362.703C682.4 367.774 678.86 384.1 674.515 386.519L673.55 386.211C673.07 383.542 687.335 348.971 679.385 342.612C668.085 340.644 661.55 352.835 657.885 361.247C654.685 370.748 656.28 373.655 656.055 383.312C655.99 386.093 654.685 391.093 653.99 393.884C656.44 392.829 661.045 390.058 662.69 389.714L663.255 390.086C662.575 393.614 655.96 397.65 652.545 398.318C650.65 397.825 651.375 398.339 650.28 396.743C649.37 391.328 653.63 384.849 653.39 382.691C651.97 369.963 652.54 361.208 660.005 350.15C663.86 344.439 669.11 340.974 676.55 339.615Z" fill="white"/>
<path d="M349.138 339.671C356.555 338.984 361.563 340.803 366.848 346.395C371.512 351.178 376.738 363.141 376.076 369.992C375.158 379.487 377.344 385.608 378.742 394.853C378.933 396.114 377.96 396.893 377.088 397.638C372.692 398.629 368.586 394.105 366.546 390.711L366.554 389.453L367.249 388.991C368.899 389.548 373.289 393.032 375.245 394.348C373.658 384.553 373.511 377.909 373.181 368.55C371.645 358.312 367.167 348.146 357.389 343.447C351.387 340.562 349.598 343.999 347.073 343.242L346.841 342.046C347.443 340.387 347.322 340.877 349.138 339.671Z" fill="white"/>
<path d="M546.455 338.311C549.915 338.353 556.27 340.964 559.73 342.101C570.885 345.765 581.895 346.575 593.44 344.436C596.98 343.779 605.265 339.628 608.135 340.623L608.515 341.673L607.86 342.845C590.255 350.845 574.93 351.757 556.45 345.427C553.325 344.358 550.32 343.273 547.56 341.376C546.215 340.451 546.525 339.781 546.455 338.311Z" fill="white"/>
<path d="M480.41 337.965C481.617 338.221 481.19 338.135 482.266 339.05L482.341 340.139C480.825 342.134 475.29 344.494 472.853 345.342C455.734 351.297 439.602 351.144 423.213 343.518C421.278 342.57 421.816 343.277 421.131 341.682L421.622 340.77C424.416 339.843 432.051 343.812 436.295 344.454C454.544 347.213 464.005 344.813 480.41 337.965Z" fill="white"/>
<path d="M491.792 454.707C499.813 453.584 505.56 455.499 513.13 456.017C515.79 456.199 523.585 454.738 526.86 454.641C532.83 454.465 538.445 455.028 544.405 455.248C546.85 455.338 552.465 454.482 554.205 455.116L554.535 456.188L553.96 457C549.89 458.987 541.52 458.02 537.11 457.562C528.03 456.829 523.165 458.275 514.415 458.793C506.565 459.257 497.054 455.727 488.547 457.69C485.841 458.314 475.2 458.841 474.278 455.906C475.319 455.158 489.023 454.959 491.792 454.707Z" fill="white"/>
<path d="M346.949 345.242C347.279 345.537 347.831 346.046 347.881 346.495C349.376 359.882 349.032 374.249 357.638 385.466C359.007 387.251 361.021 389.347 361.944 391.307L361.322 392.588C351.238 385.913 348.455 374.041 346.391 362.773C345.571 358.293 344.066 349.067 346.949 345.242Z" fill="white"/>
<path d="M494.365 475.15C505.94 477.22 518.72 478.296 530.245 475.658C532.105 475.231 532.88 475.085 534.23 475.966L534.255 477.178C526.735 480.072 502.475 481.979 494.257 476.914C493.798 476.631 494.226 475.717 494.365 475.15Z" fill="white"/>
<path d="M537.275 390.691C539.32 391.376 541.99 394.592 542.63 396.568C545.33 404.876 542.955 411.469 535.095 414.572L533.98 413.694L534.035 412.91C549.85 401.36 534.875 397.69 537.275 390.691Z" fill="white"/>
<path d="M489.96 391.202L490.847 391.422C491.695 393.413 486.552 399.122 486.951 403.447C487.55 409.948 494.155 410.05 494.494 414.669C489.286 414.072 485.13 409.518 484.871 404.252C484.589 398.509 486.425 395.361 489.96 391.202Z" fill="white"/>
<path d="M497.605 335.161C504.345 337.569 501.315 352.796 499.245 358.077C498.66 357.922 498.075 357.546 497.509 357.245C496.813 355.44 499.033 350.414 499.128 347.641C499.279 343.19 497.694 339.33 497.605 335.161Z" fill="white"/>
<path d="M497.937 405.563C502.37 405.401 510.99 408.449 508.64 413.709L507.585 413.859L506.665 413.089C504.605 411.124 503.795 410.599 501.385 409.05C498.415 409.331 497.348 410.049 494.762 408.985L494.461 408.102C495.368 406.597 496.343 406.341 497.937 405.563Z" fill="white"/>
<path d="M527.085 405.555C529.69 405.23 532.775 404.634 534.11 407.493C532.07 410.116 527.945 407.78 523.61 410.804C522.16 412.464 521.83 413.379 519.575 413.414C518.395 409.738 524.415 406.636 527.085 405.555Z" fill="white"/>
<path d="M520.01 442.728L520.3 442.984C519.285 446.257 512.05 445.506 509.435 444.754C509.225 444.19 509.345 444.595 509.29 443.495C514.385 443.134 513.615 445.018 520.01 442.728Z" fill="white"/>
<path d="M449.049 229.147C452.31 228.557 457.887 228.714 463.658 229.246C469.383 229.774 475.099 230.65 478.544 231.41C510.22 238.396 536.987 243.109 569.724 239.166C576.544 238.345 583.997 236.988 591.327 235.708C598.526 234.451 605.611 233.268 611.987 232.698C615.747 234.634 619.653 238.939 621.386 242.701V242.702C623.851 248.065 625.717 254.011 627.42 260.112C629.109 266.164 630.658 272.454 632.446 278.272C635.785 289.131 640.26 300.282 642.816 310.92L642.818 310.928C644.301 316.965 645.222 323.126 645.577 329.333V329.332C645.858 335.026 645.754 340.73 645.256 346.407V346.41C645.013 349.231 643.958 355.374 643.066 361.348C642.626 364.299 642.229 367.189 642.009 369.532C641.898 370.702 641.829 371.762 641.824 372.639C641.819 373.45 641.863 374.311 642.094 374.949L642.312 375.55L642.896 375.809L643.547 376.097L644.168 376.373L644.785 376.087C647.212 374.963 648.731 372.62 649.735 370.017C650.749 367.388 651.338 364.236 651.743 361.112C652.147 357.99 652.382 354.759 652.64 352.033C652.891 349.395 653.158 347.312 653.573 345.988L653.658 345.734C655.637 340.178 660.118 334.066 665.446 330.716C668.093 329.051 670.873 328.115 673.608 328.183C676.313 328.249 679.114 329.298 681.851 331.854L681.875 331.876L681.899 331.896C688.392 337.457 690.044 347.478 689.324 356.814C688.405 368.71 684.222 384.053 677.032 397.217C669.824 410.415 659.756 421.138 647.218 424.304C646.512 424.482 646.091 424.43 645.849 424.345C645.626 424.266 645.422 424.111 645.229 423.801C644.786 423.087 644.546 421.786 644.562 419.99C644.595 416.448 645.56 412.323 645.872 410.335L645.971 409.699L645.58 409.188C645.352 408.892 645.223 408.701 645.111 408.541C645.036 408.434 644.83 408.118 644.502 407.884C644.155 407.636 643.783 407.553 643.637 407.517C643.436 407.467 643.227 407.422 642.871 407.321L642.133 407.114L641.532 407.591C640.778 408.189 640.277 409.013 639.926 409.822C639.57 410.641 639.325 411.55 639.141 412.427C638.957 413.308 638.825 414.209 638.714 415.018C638.599 415.85 638.509 416.553 638.404 417.131V417.134C629.321 467.666 609.931 503.522 569.262 535.247C563.351 539.71 554.874 545.668 548.577 548.834C530.627 557.838 509.804 559.251 490.8 552.756L490.794 552.754L489.654 552.356C477.833 548.107 464.579 539.352 452.378 528.99C439.799 518.308 428.459 506.021 421.092 495.458C406.302 474.256 396.152 445.194 391.5 419.749C391.186 418.035 391.028 416.202 390.702 414.054C390.397 412.041 389.958 409.896 389.088 408.149L388.782 407.537L388.119 407.366L386.875 407.046L386.223 406.878L385.666 407.252L384.913 407.756L384.468 408.055L384.312 408.568C384.176 409.019 384.128 409.541 384.113 410.028C384.097 410.538 384.115 411.116 384.154 411.724C384.232 412.941 384.402 414.367 384.6 415.79C384.91 418.004 385.309 420.351 385.567 421.907C383.413 422.987 382.329 423.343 379.771 424.135C373.666 422.29 367.731 417.849 362.364 411.676C356.886 405.375 352.083 397.365 348.373 388.771C344.663 380.178 342.066 371.048 340.969 362.527C339.869 353.987 340.29 346.171 342.504 340.138C346.064 330.434 356.666 325.971 366.333 329.688C367.76 332.81 369.394 335.415 370.923 337.854C372.555 340.46 374.052 342.854 375.198 345.604C375.809 347.068 376.275 349.181 376.695 351.737C377.114 354.292 377.458 357.087 377.883 359.98C378.301 362.831 378.791 365.718 379.486 368.271C380.174 370.797 381.103 373.156 382.49 374.84L382.7 375.096L382.999 375.239C383.374 375.419 383.605 375.55 383.787 375.652C383.885 375.708 384.256 375.937 384.685 376.005C385.212 376.088 385.645 375.921 385.812 375.859C386.054 375.771 386.21 375.703 386.592 375.572L387.143 375.383L387.423 374.872C387.727 374.315 387.857 373.654 387.92 373.055C387.985 372.427 387.99 371.719 387.959 370.98C387.896 369.502 387.68 367.763 387.414 366.033C387.147 364.297 386.822 362.529 386.536 360.99C386.318 359.821 386.126 358.803 385.992 358.012L385.878 357.3C384.724 349.153 384.771 340.881 386.016 332.748C386.83 327.627 388.485 322.121 390.351 316.507C392.203 310.939 394.281 305.215 395.853 299.848C398.154 291.991 399.384 282.774 401.188 274.278C403.022 265.645 405.473 257.559 410.193 251.294C419.824 238.511 433.214 231.305 448.983 229.158L449.016 229.153L449.049 229.147Z" stroke="white" stroke-width="3"/>
</svg>
